<svg width="120" height="60" viewBox="0 0 120 60" fill="none" xmlns="http://www.w3.org/2000/svg">
<path fill-rule="evenodd" clip-rule="evenodd" d="M15.864 42.616V33.77L21.9 35.827V44.783L15.864 42.616ZM29.042 42.616V33.77L23.006 35.827V44.783L29.042 42.616ZM22.592 31.388L28.256 33.214L22.592 35.137L16.492 33.107L22.592 31.388ZM8.677 30.258V21.4L14.713 23.456V32.412L8.677 30.258ZM21.857 30.257V21.4L15.821 23.456V32.412L21.857 30.257ZM15.407 19.027L21.071 20.854L15.407 22.777L9.307 20.747L15.407 19.027ZM22.762 30.257V21.4L28.798 23.456V32.412L22.762 30.257ZM35.94 30.257V21.4L29.904 23.456V32.412L35.94 30.257ZM29.5 19.027L35.164 20.854L29.5 22.777L23.4 20.747L29.5 19.027ZM29.958 17.897V9.05004L35.994 11.107V20.062L29.958 17.897ZM43.128 17.896V9.05004L37.092 11.107V20.062L43.128 17.896ZM36.677 6.67004L42.341 8.49604L36.677 10.419L30.577 8.38904L36.677 6.67004ZM44.032 17.897V9.05004L50.068 11.107V20.062L44.032 17.897ZM57.2 17.897V9.05004L51.164 11.107V20.062L57.2 17.897ZM50.76 6.67004L56.424 8.49604L50.76 10.419L44.66 8.38904L50.76 6.67004Z" fill="#1A1C3D"/>
<path d="M46.998 39.0181L44.97 46.062H44.09L42.49 40.8301L41.042 46.062H40.144L38.037 39.0181H39.137L40.672 44.2681L42.132 39.0181H42.936L44.524 44.284L46.102 39.0181H46.987H46.998ZM52.606 43.96L53.626 44.16C53.4387 44.7645 53.0569 45.2901 52.54 45.655C52 46.05 51.368 46.2471 50.64 46.2471C49.68 46.2471 48.902 45.909 48.308 45.231C47.714 44.553 47.408 43.6661 47.408 42.5681C47.408 41.4461 47.708 40.54 48.334 39.848C48.6209 39.5142 48.9782 39.2481 49.3802 39.0688C49.7822 38.8895 50.2189 38.8015 50.659 38.8111C51.579 38.8111 52.317 39.129 52.877 39.766C53.437 40.403 53.723 41.3541 53.737 42.6221H48.624C48.624 43.6871 48.846 44.406 49.292 44.778C49.738 45.15 50.208 45.336 50.704 45.336C51.599 45.336 52.23 44.8741 52.596 43.9491L52.606 43.96ZM52.546 41.8161C52.536 41.4211 52.472 41.0701 52.351 40.7631C52.23 40.4561 52.026 40.195 51.738 39.979C51.45 39.763 51.105 39.655 50.701 39.655C50.4426 39.6509 50.1863 39.7009 49.9484 39.8018C49.7106 39.9027 49.4965 40.0524 49.32 40.2411C48.942 40.6411 48.72 41.1561 48.683 41.8161H52.545H52.546ZM55.716 46.062H55.189V36.562H56.286V40.202C56.786 39.289 57.486 38.8321 58.359 38.8321C59.165 38.8321 59.841 39.1521 60.386 39.7891C60.931 40.4261 61.203 41.3531 61.203 42.5671C61.203 43.6141 60.933 44.492 60.399 45.202C59.865 45.912 59.165 46.267 58.307 46.267C57.351 46.267 56.607 45.8131 56.107 44.9071L55.707 46.072L55.716 46.062ZM56.286 43.302C56.336 44.025 56.559 44.55 56.951 44.876C57.343 45.202 57.758 45.376 58.195 45.376C58.752 45.376 59.201 45.1341 59.543 44.6501C59.885 44.1661 60.055 43.503 60.055 42.662C60.055 41.755 59.89 41.042 59.561 40.522C59.232 40.002 58.774 39.744 58.189 39.744C57.729 39.744 57.315 39.929 56.945 40.298C56.575 40.667 56.345 41.145 56.287 41.73V43.3L56.286 43.302ZM63.999 44.236L65.045 44.0201C65.277 44.9051 66.013 45.347 67.249 45.347C67.704 45.347 68.091 45.2451 68.407 45.041C68.556 44.9527 68.6787 44.8261 68.7622 44.6743C68.8457 44.5226 68.8871 44.3512 68.882 44.1781C68.882 43.6281 68.479 43.278 67.674 43.128L66.191 42.8461C65.611 42.7341 65.148 42.516 64.804 42.19C64.46 41.864 64.289 41.435 64.289 40.89C64.289 40.29 64.523 39.8061 64.993 39.4081C65.463 39.0101 66.093 38.812 66.888 38.812C68.416 38.812 69.358 39.409 69.718 40.604L68.714 40.82C68.426 40.09 67.834 39.723 66.939 39.723C66.493 39.723 66.127 39.8231 65.842 39.9971C65.7085 40.0746 65.5983 40.1866 65.5229 40.3214C65.4476 40.4561 65.41 40.6087 65.414 40.7631C65.414 41.2811 65.779 41.6061 66.508 41.7411L67.878 41.993C69.314 42.253 70.031 42.9501 70.031 44.0811C70.0373 44.3883 69.9673 44.6924 69.8273 44.966C69.6874 45.2396 69.4818 45.4743 69.229 45.649C68.695 46.047 67.984 46.2471 67.095 46.2471C65.425 46.2471 64.395 45.5731 63.999 44.2271V44.236ZM75.865 43.96L76.885 44.16C76.7 44.762 76.338 45.26 75.799 45.655C75.26 46.05 74.627 46.2471 73.899 46.2471C72.939 46.2471 72.161 45.909 71.567 45.231C70.973 44.553 70.667 43.6661 70.667 42.5681C70.667 41.4461 70.975 40.54 71.593 39.848C71.8799 39.5142 72.2372 39.2481 72.6392 39.0688C73.0412 38.8895 73.4779 38.8015 73.918 38.8111C74.836 38.8111 75.576 39.129 76.135 39.766C76.694 40.403 76.981 41.3541 76.995 42.6221H71.883C71.883 43.6871 72.105 44.406 72.55 44.778C72.995 45.15 73.466 45.336 73.963 45.336C74.858 45.336 75.489 44.8741 75.855 43.9491L75.865 43.96ZM75.805 41.8161C75.795 41.4211 75.73 41.0701 75.61 40.7631C75.49 40.4561 75.286 40.195 74.998 39.979C74.71 39.763 74.365 39.655 73.961 39.655C73.7025 39.6507 73.4459 39.7006 73.2079 39.8016C72.9698 39.9025 72.7556 40.0522 72.579 40.2411C72.201 40.6411 71.979 41.1561 71.943 41.8161H75.805ZM79.282 46.062H78.185V39.0181H79.145V40.66C79.485 39.89 79.825 39.3921 80.165 39.1651C80.505 38.9381 80.865 38.8231 81.213 38.8231C81.3573 38.8251 81.5015 38.8337 81.645 38.849V39.8951H81.423C80.82 39.8951 80.319 40.1191 79.92 40.5671C79.521 41.0151 79.308 41.604 79.28 42.333V46.063L79.282 46.062ZM88.462 39.0181L86.03 46.062H84.893L82.38 39.0181H83.594L85.549 44.743L87.489 39.0181H88.462ZM90.512 36.55V37.767H89.34V36.55H90.514H90.512ZM90.486 39.017V46.0611H89.4V39.017H90.497H90.486ZM96.22 43.5951L97.207 43.7691C97.067 44.5471 96.759 45.156 96.281 45.597C95.803 46.038 95.206 46.257 94.481 46.257C93.511 46.257 92.781 45.897 92.261 45.182C91.741 44.467 91.498 43.582 91.498 42.557C91.498 41.487 91.766 40.5971 92.303 39.8871C92.84 39.1771 93.57 38.822 94.503 38.822C95.269 38.822 95.883 39.052 96.346 39.522C96.809 39.992 97.096 40.572 97.206 41.3L96.219 41.488C96.033 40.325 95.472 39.744 94.534 39.744C94.254 39.7346 93.9768 39.8013 93.7317 39.9369C93.4866 40.0724 93.2828 40.2719 93.142 40.514C92.817 41.027 92.654 41.692 92.654 42.51C92.654 43.41 92.814 44.1101 93.138 44.6101C93.2773 44.845 93.477 45.0384 93.7164 45.1701C93.9557 45.3018 94.2259 45.3671 94.499 45.3591C95.404 45.3591 95.977 44.775 96.219 43.606L96.22 43.5951ZM103.396 43.96L104.416 44.16C104.229 44.7645 103.847 45.2901 103.33 45.655C102.79 46.05 102.158 46.2471 101.43 46.2471C100.47 46.2471 99.69 45.909 99.097 45.231C98.504 44.553 98.197 43.6661 98.197 42.5681C98.197 41.4461 98.497 40.54 99.123 39.848C99.4099 39.5142 99.7672 39.2481 100.169 39.0688C100.571 38.8895 101.008 38.8015 101.448 38.8111C102.368 38.8111 103.108 39.129 103.666 39.766C104.224 40.403 104.512 41.3541 104.526 42.6221H99.414C99.414 43.6871 99.636 44.406 100.082 44.778C100.528 45.15 100.998 45.336 101.494 45.336C102.389 45.336 103.02 44.8741 103.386 43.9491L103.396 43.96ZM103.336 41.8161C103.326 41.4211 103.262 41.0701 103.141 40.7631C103.015 40.4492 102.803 40.1773 102.529 39.979C102.241 39.763 101.896 39.655 101.492 39.655C101.234 39.6504 100.977 39.7002 100.74 39.8011C100.502 39.9021 100.288 40.052 100.112 40.2411C99.736 40.6411 99.512 41.1561 99.475 41.8161H103.337H103.336ZM105.156 44.236L106.202 44.0201C106.434 44.9051 107.169 45.347 108.406 45.347C108.861 45.347 109.246 45.2451 109.564 45.041C109.713 44.9526 109.835 44.8259 109.919 44.6742C110.002 44.5224 110.043 44.3511 110.038 44.1781C110.038 43.6281 109.635 43.278 108.831 43.128L107.348 42.8461C106.768 42.7341 106.305 42.516 105.961 42.19C105.617 41.864 105.446 41.435 105.446 40.89C105.446 40.29 105.68 39.8061 106.15 39.4081C106.62 39.0101 107.25 38.812 108.045 38.812C109.573 38.812 110.515 39.409 110.875 40.604L109.871 40.82C109.583 40.09 108.991 39.723 108.096 39.723C107.65 39.723 107.296 39.8231 106.999 39.9971C106.865 40.0746 106.755 40.1866 106.68 40.3214C106.605 40.4561 106.567 40.6087 106.571 40.7631C106.571 41.2811 106.936 41.6061 107.665 41.7411L109.035 41.993C110.471 42.253 111.188 42.9501 111.188 44.0811C111.194 44.3883 111.124 44.6924 110.984 44.966C110.844 45.2396 110.639 45.4743 110.386 45.649C109.852 46.047 109.141 46.2471 108.252 46.2471C106.584 46.2471 105.552 45.5731 105.157 44.2271L105.156 44.236Z" fill="#1A1C3D" stroke="#1A1C3D" stroke-width="0.213"/>
<path fill-rule="evenodd" clip-rule="evenodd" d="M80.42 23.964V22.272C80.4186 22.2152 80.4288 22.1586 80.4499 22.1058C80.4711 22.0531 80.5027 22.0051 80.5429 21.9649C80.5831 21.9247 80.631 21.8931 80.6838 21.872C80.7366 21.8508 80.7931 21.8406 80.85 21.842H88.433C88.675 21.842 88.87 22.018 88.871 22.269V23.719C88.869 23.962 88.664 24.279 88.301 24.784L84.374 30.392C85.832 30.358 87.374 30.576 88.699 31.322C88.999 31.49 89.077 31.738 89.101 31.982V33.787C89.101 34.037 88.829 34.324 88.543 34.174C86.209 32.951 83.113 32.817 80.531 34.188C80.267 34.328 79.991 34.045 79.991 33.796V32.08C79.991 31.805 79.996 31.336 80.273 30.917L84.823 24.387H80.86C80.8028 24.3896 80.7457 24.3805 80.6922 24.3602C80.6387 24.34 80.5899 24.309 80.5488 24.2692C80.5077 24.2294 80.4752 24.1816 80.4532 24.1288C80.4312 24.076 80.4202 24.0192 80.421 23.962L80.42 23.964ZM53.283 34.532H50.976C50.756 34.518 50.581 34.352 50.564 34.132L50.565 22.292C50.565 22.055 50.765 21.866 51.01 21.866L53.158 21.865C53.383 21.877 53.563 22.047 53.578 22.263V23.809H53.621C54.181 22.314 55.236 21.616 56.657 21.616C58.1 21.616 59.004 22.314 59.651 23.809C60.211 22.314 61.481 21.616 62.838 21.616C63.808 21.616 64.862 22.016 65.508 22.912C66.24 23.908 66.09 25.354 66.09 26.625L66.088 34.097C66.088 34.334 65.888 34.523 65.643 34.523H63.34C63.11 34.508 62.926 34.325 62.926 34.098V27.83C62.926 27.33 62.969 26.086 62.861 25.612C62.689 24.815 62.161 24.59 61.505 24.59C60.945 24.59 60.363 24.964 60.125 25.562C59.887 26.16 59.91 27.157 59.91 27.83V34.106C59.91 34.343 59.71 34.532 59.465 34.532H57.16C56.928 34.517 56.746 34.334 56.746 34.107L56.744 27.83C56.744 26.51 56.959 24.566 55.324 24.566C53.666 24.566 53.73 26.459 53.73 27.83V34.106C53.73 34.343 53.53 34.532 53.285 34.532H53.283ZM94.443 21.625C97.84 21.625 99.677 24.565 99.677 28.303C99.677 31.916 97.647 34.781 94.443 34.781C91.11 34.781 89.293 31.841 89.293 28.178C89.293 24.491 91.131 21.625 94.443 21.625ZM94.465 24.347C92.777 24.347 92.67 26.664 92.67 28.109C92.67 29.554 92.65 32.339 94.444 32.339C96.218 32.339 96.304 30.152 96.304 28.632C96.304 27.636 96.262 26.439 95.964 25.492C95.707 24.67 95.194 24.346 94.468 24.346L94.465 24.347ZM104.593 34.532H102.295C102.065 34.517 101.881 34.334 101.881 34.107L101.877 22.262C101.897 22.045 102.077 21.876 102.32 21.876L104.46 21.875C104.555 21.8786 104.646 21.9129 104.72 21.9727C104.794 22.0326 104.847 22.1148 104.87 22.207V24.007H104.914C105.56 22.387 106.464 21.615 108.058 21.615C109.091 21.615 110.104 21.989 110.75 23.01C111.353 23.957 111.353 25.55 111.353 26.698V34.148C111.327 34.348 111.139 34.521 110.911 34.521H108.598C108.385 34.507 108.213 34.351 108.198 34.148V27.718C108.198 26.423 108.348 24.518 106.755 24.518C106.195 24.518 105.678 24.892 105.42 25.465C105.097 26.188 105.053 26.91 105.053 27.708V34.084C105.049 34.321 104.85 34.51 104.603 34.51L104.593 34.532ZM74.638 28.877C74.638 29.777 74.66 30.525 74.206 31.324C73.839 31.974 73.256 32.374 72.609 32.374C71.724 32.374 71.206 31.7 71.206 30.701C71.206 28.737 72.969 28.379 74.636 28.379V28.879L74.638 28.877ZM76.964 34.502C76.811 34.639 76.591 34.648 76.419 34.556C75.653 33.919 75.516 33.626 75.097 33.018C73.831 34.318 72.934 34.695 71.294 34.695C69.352 34.695 67.841 33.495 67.841 31.099C67.841 29.226 68.855 27.953 70.301 27.329C71.553 26.779 73.301 26.679 74.639 26.529V26.229C74.639 25.679 74.682 25.031 74.359 24.556C74.079 24.131 73.539 23.956 73.064 23.956C72.184 23.956 71.402 24.406 71.209 25.342C71.169 25.55 71.017 25.755 70.809 25.766L68.573 25.524C68.373 25.481 68.173 25.33 68.229 25.042C68.743 22.329 71.193 21.51 73.389 21.51C74.511 21.51 75.989 21.81 76.863 22.66C77.986 23.71 77.877 25.107 77.877 26.63V30.224C77.877 31.304 78.327 31.779 78.747 32.362C78.894 32.562 78.927 32.822 78.739 32.975L76.969 34.507L76.963 34.501L76.964 34.502ZM44.657 28.877C44.657 29.777 44.679 30.525 44.225 31.324C43.858 31.974 43.275 32.374 42.628 32.374C41.743 32.374 41.225 31.7 41.225 30.701C41.225 28.737 42.987 28.379 44.655 28.379V28.879L44.657 28.877ZM46.983 34.502C46.83 34.639 46.61 34.648 46.438 34.556C45.672 33.919 45.534 33.626 45.116 33.018C43.85 34.318 42.953 34.695 41.313 34.695C39.371 34.695 37.86 33.495 37.86 31.099C37.86 29.226 38.874 27.953 40.32 27.329C41.572 26.779 43.32 26.679 44.658 26.529V26.229C44.658 25.679 44.701 25.031 44.378 24.556C44.098 24.131 43.558 23.956 43.083 23.956C42.203 23.956 41.421 24.406 41.228 25.342C41.188 25.55 41.028 25.755 40.828 25.766L38.592 25.524C38.392 25.481 38.192 25.33 38.248 25.042C38.761 22.329 41.211 21.51 43.408 21.51C44.53 21.51 46.008 21.81 46.883 22.66C48.005 23.71 47.897 25.107 47.897 26.63V30.224C47.897 31.304 48.347 31.779 48.767 32.362C48.914 32.562 48.947 32.822 48.76 32.975L47 34.507L46.994 34.501L46.983 34.502Z" fill="#1A1C3D"/>
</svg>
