<svg width="120" height="60" viewBox="0 0 120 60" fill="none" xmlns="http://www.w3.org/2000/svg">
<path d="M25.004 47.723V40.743C32.394 40.743 38.129 33.415 35.292 25.638C34.252 22.78 31.944 20.474 29.066 19.433C21.289 16.616 13.961 22.333 13.961 29.721H7C7 17.94 18.4 8.75597 30.74 12.614C36.13 14.308 40.436 18.594 42.11 23.984C45.968 36.334 36.782 47.723 25.004 47.723Z" fill="#1A1C3D"/>
<path fill-rule="evenodd" clip-rule="evenodd" d="M25.024 33.822V40.782H18.064V33.822H25.024ZM18.064 40.782V46.1H12.736V40.772L18.064 40.782ZM12.736 40.782H8.26599V36.312H12.736V40.782Z" fill="#1A1C3D"/>
<path d="M60.754 13.867C59.174 12.754 57.154 12.215 54.854 12.215H49.827V28.195H54.9C57.198 28.195 59.2 27.62 60.8 26.435C61.662 25.835 62.344 24.963 62.847 23.885C63.314 22.808 63.565 21.515 63.565 20.115C63.565 18.715 63.315 17.458 62.847 16.381C62.344 15.304 61.662 14.441 60.764 13.867H60.754ZM52.782 14.907H54.362C56.122 14.907 57.558 15.267 58.662 15.947C59.882 16.701 60.492 18.102 60.492 20.112C60.492 22.195 59.892 23.667 58.662 24.457C57.622 25.139 56.184 25.497 54.389 25.497H52.773V14.9L52.782 14.907ZM67.038 12C66.535 12 66.14 12.18 65.781 12.503C65.6176 12.6609 65.4886 12.8509 65.4021 13.061C65.3155 13.2711 65.2733 13.4968 65.278 13.724C65.278 14.227 65.458 14.622 65.781 14.981C66.104 15.304 66.535 15.484 67.038 15.484C67.5053 15.4802 67.9541 15.3006 68.295 14.981C68.618 14.658 68.798 14.227 68.798 13.724C68.8028 13.4968 68.7606 13.2711 68.674 13.061C68.5874 12.8509 68.4584 12.6609 68.295 12.503C67.935 12.18 67.495 12 67.038 12ZM65.6 16.92H68.437V28.195H65.6V16.92ZM78.744 17.853C77.882 17.099 76.949 16.633 75.907 16.633C74.327 16.633 73.034 17.173 72.029 18.249C71.024 19.289 70.485 20.655 70.485 22.307C70.485 23.887 70.988 25.252 71.993 26.329C72.998 27.369 74.327 27.909 75.871 27.909C76.948 27.909 77.918 27.622 78.671 27.011V27.261C78.671 28.195 78.421 28.913 77.917 29.416C77.413 29.919 76.732 30.17 75.87 30.17C74.577 30.17 73.75 29.667 72.746 28.303L70.806 30.17L70.842 30.242C71.272 30.817 71.882 31.392 72.745 31.93C73.571 32.47 74.648 32.756 75.905 32.756C77.593 32.756 78.957 32.253 79.963 31.212C80.969 30.171 81.471 28.806 81.471 27.118V16.884H78.671V17.854L78.744 17.853ZM78 24.532C77.497 25.107 76.85 25.358 76.06 25.358C75.234 25.358 74.624 25.071 74.12 24.532C73.617 23.957 73.402 23.239 73.402 22.332C73.402 21.398 73.652 20.68 74.12 20.106C74.588 19.532 75.27 19.28 76.06 19.28C76.886 19.28 77.496 19.567 78 20.106C78.503 20.681 78.754 21.436 78.754 22.332C78.754 23.228 78.504 23.948 78 24.532ZM83.95 16.92H86.787V28.195H83.95V16.92ZM85.387 12C84.884 12 84.489 12.18 84.13 12.503C83.9666 12.6609 83.8376 12.8509 83.751 13.061C83.6645 13.2711 83.6223 13.4968 83.627 13.724C83.627 14.227 83.807 14.622 84.13 14.981C84.453 15.304 84.884 15.484 85.387 15.484C85.8543 15.4802 86.3031 15.3006 86.644 14.981C86.967 14.658 87.147 14.227 87.147 13.724C87.1518 13.4968 87.1096 13.2711 87.023 13.061C86.9365 12.8509 86.8074 12.6609 86.644 12.503C86.284 12.18 85.89 12 85.387 12ZM93 13.867H90.2V16.919H88.584V19.504H90.2V24.172C90.2 25.644 90.487 26.686 91.062 27.296C91.637 27.906 92.678 28.194 94.114 28.194L95.479 28.158H95.623V25.573L94.653 25.609C93.971 25.609 93.54 25.501 93.323 25.249C93.106 24.997 93 24.496 93 23.742V19.47H95.657V16.885H93V13.87V13.867ZM108.943 12.18H111.78V28.195H108.943V12.18Z" fill="#1A1C3D"/>
<path d="M105.388 17.78C104.526 17.062 103.341 16.667 101.868 16.667C100.934 16.667 100.038 16.882 99.248 17.267C98.494 17.627 97.776 18.272 97.308 19.062L97.344 19.098L99.174 20.822C99.928 19.637 100.754 19.206 101.867 19.206C102.467 19.206 102.944 19.35 103.339 19.673C103.699 19.996 103.914 20.391 103.914 20.893V21.433C103.196 21.218 102.514 21.11 101.831 21.11C100.431 21.11 99.281 21.433 98.431 22.08C97.581 22.727 97.138 23.696 97.138 24.917C97.138 25.994 97.498 26.82 98.251 27.467C99.005 28.067 99.903 28.401 100.981 28.401C102.059 28.401 103.064 27.971 103.997 27.216V28.15H106.797V20.896C106.689 19.566 106.257 18.49 105.397 17.772L105.388 17.78ZM100.361 23.884C100.684 23.669 101.161 23.561 101.726 23.561C102.408 23.561 103.126 23.705 103.881 23.956V25.069C103.281 25.644 102.445 25.931 101.439 25.931C100.936 25.931 100.577 25.823 100.289 25.608C100.163 25.5106 100.062 25.3852 99.9936 25.2418C99.925 25.0984 99.8909 24.9409 99.894 24.782C99.8838 24.6041 99.9219 24.4268 100.004 24.2688C100.086 24.1108 100.21 23.9778 100.361 23.884Z" fill="#1A1C3D"/>
<path d="M75.172 43.7C74.669 44.275 74.132 44.777 73.736 45.03C73.34 45.283 72.838 45.425 72.264 45.425C71.438 45.425 70.756 45.138 70.217 44.491C69.677 43.891 69.391 43.055 69.391 42.121C69.391 41.151 69.678 40.361 70.217 39.751C70.756 39.141 71.437 38.817 72.264 38.817C73.162 38.817 74.131 39.392 74.957 40.361L76.824 38.566C75.604 36.986 74.059 36.232 72.192 36.232C70.648 36.232 69.292 36.807 68.17 37.92C67.048 39.033 66.518 40.434 66.518 42.12C66.518 43.806 67.093 45.208 68.17 46.32C69.283 47.435 70.61 48.02 72.19 48.02C74.237 48.02 75.89 47.122 77.038 45.506L75.17 43.7H75.172ZM86.842 38.027C86.447 37.452 85.908 37.022 85.226 36.697C84.544 36.372 83.754 36.194 82.892 36.194C81.312 36.194 80.019 36.769 79.05 37.918C78.116 39.068 77.614 40.468 77.614 42.155C77.614 43.879 78.154 45.279 79.158 46.355C80.198 47.432 81.564 47.971 83.252 47.971C85.155 47.971 86.735 47.171 87.92 45.673L87.992 45.601L86.125 43.806C85.945 44.021 85.695 44.236 85.479 44.452C85.192 44.702 84.939 44.919 84.653 45.052C84.2068 45.2723 83.7145 45.383 83.217 45.375C82.417 45.375 81.781 45.16 81.277 44.693C80.81 44.263 80.523 43.688 80.451 42.969H87.956L87.992 41.929C87.992 41.211 87.884 40.493 87.705 39.846C87.526 39.199 87.238 38.589 86.843 38.016L86.842 38.027ZM80.63 40.684C80.774 40.144 81.025 39.679 81.384 39.354C81.779 38.959 82.282 38.779 82.856 38.779C83.538 38.779 84.076 38.959 84.436 39.354C84.7744 39.7183 84.9774 40.1878 85.011 40.684H80.63Z" fill="#1A1C3D"/>
<path d="M97.722 37.3C96.86 36.582 95.675 36.187 94.202 36.187C93.268 36.187 92.372 36.402 91.582 36.787C90.828 37.147 90.11 37.792 89.642 38.582L89.678 38.618L91.508 40.342C92.262 39.157 93.088 38.726 94.201 38.726C94.801 38.726 95.278 38.87 95.673 39.193C96.033 39.516 96.248 39.911 96.248 40.413V40.953C95.53 40.738 94.848 40.63 94.165 40.63C92.765 40.63 91.615 40.953 90.765 41.6C89.915 42.247 89.472 43.216 89.472 44.437C89.472 45.514 89.832 46.34 90.585 46.987C91.339 47.587 92.237 47.921 93.315 47.921C94.393 47.921 95.398 47.491 96.331 46.736V47.67H99.131V40.416C99.023 39.086 98.591 38.01 97.731 37.292L97.722 37.3ZM92.695 43.404C93.018 43.189 93.495 43.081 94.06 43.081C94.742 43.081 95.46 43.225 96.215 43.476V44.589C95.615 45.164 94.779 45.451 93.773 45.451C93.27 45.451 92.911 45.343 92.623 45.128C92.4973 45.0306 92.3962 44.9052 92.3276 44.7618C92.259 44.6184 92.2249 44.4609 92.228 44.302C92.2178 44.1242 92.2559 43.9469 92.338 43.7888C92.4202 43.6308 92.5436 43.4978 92.695 43.404Z" fill="#1A1C3D"/>
<path d="M109.93 37.515C109.13 36.617 108.027 36.185 106.626 36.185C105.513 36.185 104.579 36.508 103.896 37.155V36.473H101.131V47.713H103.968V41.5C103.968 40.638 104.183 39.956 104.568 39.5C104.953 39.044 105.502 38.782 106.256 38.782C106.902 38.782 107.369 38.997 107.728 39.428C108.087 39.859 108.268 40.468 108.268 41.188V47.723H111.105V41.188C111.105 39.644 110.71 38.388 109.92 37.525L109.93 37.515ZM56.823 47.965C54.6327 47.9648 52.5321 47.0945 50.9833 45.5457C49.4345 43.9969 48.5643 41.8964 48.564 39.706C48.5643 37.5157 49.4345 35.4151 50.9833 33.8663C52.5321 32.3175 54.6327 31.4473 56.823 31.447C59.0134 31.4473 61.1139 32.3175 62.6627 33.8663C64.2115 35.4151 65.0818 37.5157 65.082 39.706C65.0818 41.8964 64.2115 43.9969 62.6627 45.5457C61.1139 47.0945 59.0134 47.9648 56.823 47.965ZM56.823 34.365C53.878 34.365 51.473 36.771 51.473 39.715C51.473 42.659 53.879 45.065 56.823 45.065C59.767 45.065 62.173 42.659 62.173 39.715C62.173 36.771 59.767 34.365 56.823 34.365Z" fill="#1A1C3D"/>
</svg>
