<svg width="156" height="60" viewBox="0 0 156 60" fill="none" xmlns="http://www.w3.org/2000/svg">
<path d="M22.73 23.5735L23.874 23.5935L26.982 20.4855L27.132 19.1685C24.662 16.9715 21.412 15.6345 17.855 15.6345C11.415 15.6345 5.97902 20.0165 4.36902 25.9525C4.70902 25.7155 5.43402 25.8925 5.43402 25.8925L11.646 24.8705C11.646 24.8705 11.966 24.3405 12.126 24.3735C13.4594 22.9148 15.2992 22.0198 17.2699 21.8711C19.2407 21.7225 21.1929 22.3313 22.73 23.5735Z" fill="#1A1C3D"/>
<path d="M31.36 25.9635C30.6459 23.3362 29.1807 20.9743 27.144 19.1675L22.742 23.5695C23.6454 24.2955 24.3745 25.215 24.8755 26.2601C25.3765 27.3053 25.6368 28.4495 25.637 29.6085V30.3855C27.779 30.3855 29.517 32.1285 29.517 34.2655C29.517 36.4025 27.774 38.1455 25.637 38.1455H17.875L17.098 38.9255V43.5835L17.875 44.3565H25.637C28.3102 44.3493 30.8718 43.2838 32.7614 41.3929C34.651 39.502 35.7147 36.9397 35.72 34.2665C35.716 30.8305 33.984 27.7865 31.35 25.9635H31.36Z" fill="#1A1C3D"/>
<path d="M10.0939 44.3634H17.8539V38.1514H10.0939C9.54288 38.1517 8.99822 38.0334 8.49695 37.8044L7.37695 38.1474L4.26895 41.2554L3.99695 42.3054C5.7456 43.6481 7.89031 44.3726 10.0949 44.3654L10.0939 44.3634Z" fill="#1A1C3D"/>
<path d="M10.094 24.1765C7.41821 24.1807 4.85322 25.2456 2.96114 27.1377C1.06906 29.0297 0.00423135 31.5947 4.91191e-10 34.2705C-1.53802e-05 35.8286 0.361179 37.3655 1.05521 38.7606C1.74925 40.1556 2.75723 41.3707 4 42.3105L8.5 37.8105C7.81836 37.5038 7.23982 37.0068 6.83392 36.3791C6.42803 35.7515 6.21207 35.02 6.212 34.2725C6.212 32.1305 7.955 30.3925 10.092 30.3925C10.8392 30.3938 11.5702 30.6103 12.1976 31.016C12.825 31.4218 13.3223 31.9996 13.63 32.6805L18.13 28.1805C16.284 25.7505 13.37 24.1805 10.09 24.1805L10.094 24.1765Z" fill="#1A1C3D"/>
<path d="M51.4936 35.4289C49.3736 35.4289 47.5536 34.6789 46.0196 33.1789C44.4856 31.6789 43.7196 29.8749 43.7196 27.7709C43.7196 25.6669 44.4846 23.8629 46.0196 22.3629C47.5546 20.8629 49.3766 20.1119 51.4936 20.1119C52.4648 20.0977 53.429 20.277 54.3302 20.6393C55.2313 21.0015 56.0514 21.5395 56.7426 22.2219L55.2656 23.6989C54.2549 22.7215 52.8984 22.1841 51.4926 22.2039C49.9626 22.2039 48.6626 22.7439 47.5966 23.8309C47.078 24.3458 46.6691 24.9605 46.3947 25.6379C46.1202 26.3152 45.9858 27.0411 45.9996 27.7719C45.9996 29.3179 46.5296 30.6289 47.5966 31.7119C48.098 32.2379 48.7032 32.6542 49.3738 32.9343C50.0445 33.2143 50.766 33.3521 51.4926 33.3389C53.0506 33.3389 54.3376 32.8389 55.3626 31.8049C55.9626 31.2049 56.3626 30.3049 56.5026 29.1699H51.4966V27.0779H58.5406C58.6156 27.4499 58.6406 27.8779 58.6406 28.3779C58.6406 30.4339 58.0376 32.0639 56.8276 33.2729C55.4556 34.7079 53.6776 35.4229 51.4826 35.4229L51.4936 35.4289ZM67.8636 34.0289C66.9036 34.9689 65.7336 35.4289 64.3516 35.4289C62.9696 35.4289 61.7976 34.9589 60.8396 34.0289C59.8816 33.0989 59.4016 31.9159 59.4016 30.5089C59.4016 29.1019 59.8816 27.9289 60.8396 26.9889C61.7976 26.0489 62.9696 25.5889 64.3516 25.5889C65.7336 25.5889 66.9056 26.0589 67.8636 26.9889C68.8216 27.9189 69.3016 29.1049 69.3016 30.5089C69.3016 31.9129 68.8216 33.0889 67.8636 34.0289ZM62.3896 32.6489C62.6391 32.92 62.9427 33.1357 63.2809 33.2819C63.6191 33.4282 63.9842 33.5017 64.3526 33.4979C65.1126 33.4979 65.7666 33.2159 66.3156 32.6479C66.8646 32.0799 67.1376 31.3679 67.1376 30.5079C67.1376 29.6379 66.8676 28.9199 66.3246 28.3579C65.7816 27.7959 65.1266 27.5179 64.3526 27.5179C63.9834 27.5122 63.6172 27.584 63.2775 27.7287C62.9378 27.8734 62.6323 28.0877 62.3806 28.3579C61.8376 28.9179 61.5676 29.6339 61.5676 30.5079C61.5676 31.3659 61.8406 32.0809 62.3896 32.6479V32.6489ZM78.6626 34.0289C77.7026 34.9689 76.5326 35.4289 75.1506 35.4289C73.7686 35.4289 72.5966 34.9589 71.6386 34.0289C70.6806 33.0989 70.2006 31.9159 70.2006 30.5089C70.2006 29.1019 70.6806 27.9289 71.6386 26.9889C72.5966 26.0489 73.7686 25.5889 75.1506 25.5889C76.5326 25.5889 77.7046 26.0589 78.6626 26.9889C79.6206 27.9189 80.1006 29.1049 80.1006 30.5089C80.1006 31.9129 79.6206 33.0889 78.6626 34.0289ZM73.1886 32.6489C73.4381 32.92 73.7417 33.1357 74.0799 33.2819C74.4181 33.4282 74.7832 33.5017 75.1516 33.4979C75.9116 33.4979 76.5656 33.2159 77.1146 32.6479C77.6636 32.0799 77.9366 31.3679 77.9366 30.5079C77.9366 29.6379 77.6666 28.9199 77.1236 28.3579C76.5806 27.7959 75.9256 27.5179 75.1516 27.5179C74.7824 27.5122 74.4162 27.584 74.0765 27.7287C73.7368 27.8734 73.4313 28.0877 73.1796 28.3579C72.6366 28.9179 72.3666 29.6339 72.3666 30.5079C72.3666 31.3659 72.6396 32.0809 73.1886 32.6479V32.6489ZM85.7616 39.8689C84.6666 39.8689 83.7446 39.5749 82.9976 38.9889C82.2506 38.4029 81.7156 37.7249 81.3916 36.9509L83.2796 36.1679C83.4776 36.6419 83.7796 37.0529 84.2126 37.4019C84.6456 37.7509 85.1526 37.9239 85.7646 37.9239C86.5866 37.9239 87.2326 37.6739 87.6976 37.1769C88.1626 36.6799 88.3976 35.9609 88.3976 35.0269V34.3269H88.3226C87.7226 35.0739 86.8456 35.4489 85.7266 35.4489C84.4686 35.4489 83.3666 34.9689 82.4196 34.0109C81.9596 33.558 81.5965 33.0164 81.3524 32.4188C81.1083 31.8212 80.9882 31.1803 80.9996 30.5349C80.988 29.8854 81.1079 29.2403 81.3519 28.6384C81.5959 28.0364 81.9591 27.4899 82.4196 27.0319C83.3646 26.0689 84.4696 25.5849 85.7266 25.5849C86.2866 25.5849 86.7946 25.6899 87.2486 25.9029C87.7026 26.1159 88.0616 26.3769 88.3226 26.6859H88.3976V25.8919H90.4536V34.7489C90.4536 36.4689 90.0156 37.7529 89.1356 38.6089C88.2556 39.4589 87.1336 39.8889 85.7626 39.8889L85.7616 39.8689ZM85.9116 33.4969C86.2681 33.5032 86.6216 33.4303 86.9465 33.2835C87.2714 33.1366 87.5597 32.9196 87.7906 32.6479C88.2946 32.0809 88.5466 31.3749 88.5466 30.5259C88.5466 29.6679 88.2946 28.9499 87.7906 28.3759C87.561 28.102 87.2732 27.8828 86.9481 27.7344C86.6231 27.5859 86.2689 27.512 85.9116 27.5179C85.1516 27.5179 84.5036 27.8059 83.9696 28.3759C83.4356 28.9459 83.1656 29.6639 83.1656 30.5259C83.1656 31.3719 83.4326 32.0809 83.9696 32.6479C84.5066 33.2149 85.1526 33.4969 85.9116 33.4969ZM94.1136 20.6319V35.1319H91.9466V20.6319H94.1136ZM100.054 35.4279C98.6576 35.4279 97.4936 34.9539 96.5596 34.0079C95.6256 33.0619 95.1576 31.8919 95.1576 30.4959C95.1576 29.0519 95.6076 27.8659 96.5116 26.9459C96.9357 26.4996 97.4478 26.1462 98.0154 25.9079C98.5831 25.6697 99.1941 25.5519 99.8096 25.5619C100.407 25.5619 100.963 25.6699 101.473 25.8889C101.947 26.0832 102.378 26.3685 102.743 26.7289C103.046 27.0313 103.316 27.3664 103.547 27.7279C103.737 28.0368 103.9 28.3621 104.033 28.6999L104.258 29.2599L97.6636 31.9919C98.1636 32.9879 98.9636 33.4869 100.056 33.4869C101.052 33.4869 101.863 33.0339 102.484 32.1239L104.164 33.2459C103.789 33.8059 103.261 34.3109 102.576 34.7589C101.891 35.2069 101.048 35.4289 100.052 35.4289L100.054 35.4279ZM97.3076 30.3479L101.708 28.5179C101.582 28.2059 101.354 27.9539 101.008 27.7619C100.66 27.567 100.266 27.4676 99.8676 27.4739C99.2316 27.4739 98.6376 27.7339 98.0846 28.2569C97.5316 28.7799 97.2646 29.4789 97.2896 30.3489L97.3076 30.3479ZM115.638 35.4279C113.668 35.4279 112.018 34.7619 110.686 33.4279C109.354 32.0939 108.686 30.4329 108.686 28.4399C108.686 26.4469 109.352 24.7839 110.686 23.4519C112.02 22.1199 113.669 21.4519 115.638 21.4519C117.655 21.4519 119.294 22.1819 120.551 23.6369L119.356 24.7969C118.456 23.6629 117.206 23.0969 115.636 23.0969C114.176 23.0969 112.95 23.5889 111.936 24.5739C110.922 25.5589 110.432 26.8459 110.432 28.4399C110.432 30.0339 110.932 31.3239 111.936 32.3099C112.94 33.2959 114.169 33.7869 115.636 33.7869C117.242 33.7869 118.613 33.1389 119.736 31.8449L120.931 33.0399C120.304 33.7871 119.518 34.3841 118.631 34.7869C117.689 35.22 116.663 35.4393 115.627 35.4289L115.638 35.4279ZM124.194 35.1319H122.474V21.7549H124.194V35.1319ZM126.997 27.0719C127.882 26.1449 128.997 25.6789 130.379 25.6789C131.761 25.6789 132.876 26.1439 133.761 27.0719C134.646 27.9999 135.088 29.1719 135.088 30.5569C135.088 31.9419 134.648 33.1139 133.761 34.0419C132.874 34.9699 131.761 35.4349 130.379 35.4349C128.997 35.4349 127.882 34.9699 126.997 34.0419C126.112 33.1139 125.67 31.9419 125.67 30.5569C125.67 29.1719 126.11 27.9999 126.997 27.0719ZM128.277 32.9549C128.877 33.5579 129.571 33.8609 130.377 33.8609C131.183 33.8609 131.877 33.5579 132.477 32.9549C133.077 32.3519 133.365 31.5499 133.365 30.5549C133.365 29.5599 133.068 28.7569 132.477 28.1549C131.886 27.5529 131.183 27.2489 130.377 27.2489C129.571 27.2489 128.877 27.5519 128.277 28.1549C127.677 28.7579 127.389 29.5599 127.389 30.5549C127.389 31.5499 127.686 32.3529 128.277 32.9549ZM144.597 35.1319H142.952V33.8619H142.877C142.617 34.2969 142.217 34.6689 141.682 34.9619C141.147 35.2549 140.582 35.4219 139.982 35.4219C138.835 35.4219 137.968 35.0739 137.377 34.3749C136.786 33.6759 136.489 32.7419 136.489 31.5719V25.9659H138.209V31.2899C138.209 32.9979 138.962 33.8499 140.469 33.8499C140.806 33.857 141.14 33.7827 141.443 33.6334C141.745 33.484 142.007 33.264 142.207 32.9919C142.651 32.4281 142.888 31.7287 142.879 31.0109V25.9659H144.599V35.1229L144.597 35.1319ZM150.425 35.4289C149.242 35.4289 148.219 34.9609 147.361 34.0269C146.503 33.0929 146.073 31.9349 146.073 30.5509C146.073 29.1669 146.503 28.0089 147.361 27.0749C148.219 26.1409 149.243 25.6729 150.425 25.6729C151.121 25.6729 151.749 25.8229 152.305 26.1199C152.861 26.4169 153.275 26.7919 153.548 27.2419H153.623L153.548 25.9719V21.7519H155.268V35.1319H153.623V33.8619H153.548C153.275 34.3089 152.861 34.6839 152.305 34.9839C151.75 35.2779 151.122 35.4289 150.425 35.4289ZM150.705 33.8589C151.093 33.8641 151.478 33.7869 151.833 33.6323C152.189 33.4776 152.509 33.2491 152.77 32.9619C153.337 32.3649 153.62 31.5599 153.62 30.5619C153.62 29.5639 153.338 28.7489 152.77 28.1619C152.509 27.8746 152.189 27.6461 151.833 27.4915C151.478 27.3368 151.093 27.2596 150.705 27.2649C149.907 27.2649 149.222 27.5679 148.649 28.1709C148.076 28.7739 147.791 29.5759 147.791 30.5709C147.791 31.5659 148.076 32.3689 148.649 32.9709C148.907 33.2591 149.225 33.489 149.579 33.6452C149.934 33.8014 150.317 33.8804 150.705 33.8769V33.8589Z" fill="#1A1C3D"/>
</svg>
