<svg width="210" height="60" viewBox="0 0 210 60" fill="none" xmlns="http://www.w3.org/2000/svg">
<path d="M14.5 4.5V48.3092M32.5 55.3V31.5312V13.8211H4.5H59" stroke="white" stroke-width="9" stroke-linecap="round"/>
<path d="M61.7094 38.9V21.068H65.5014V38.9H61.7094ZM69.6572 38.9V25.544H72.9812L73.0412 27.044C73.3452 26.788 73.7332 26.532 74.2052 26.276C74.6772 26.012 75.1972 25.792 75.7652 25.616C76.3412 25.44 76.9212 25.348 77.5052 25.34C78.8972 25.308 79.9212 25.68 80.5772 26.456C81.2332 27.224 81.5612 28.576 81.5612 30.512V38.9H77.8892V31.028C77.8892 29.988 77.7532 29.26 77.4812 28.844C77.2092 28.428 76.6772 28.236 75.8852 28.268C75.6452 28.276 75.3732 28.32 75.0692 28.4C74.7732 28.472 74.4692 28.584 74.1572 28.736C73.8532 28.88 73.5692 29.06 73.3052 29.276V38.9H69.6572ZM89.1933 39.092C88.3773 39.092 87.7013 38.96 87.1653 38.696C86.6373 38.424 86.2413 37.996 85.9773 37.412C85.7213 36.828 85.5933 36.056 85.5933 35.096V28.04H83.9733V26.084C84.5653 25.916 85.0373 25.756 85.3893 25.604C85.7493 25.452 86.0093 25.188 86.1693 24.812C86.2493 24.628 86.3333 24.412 86.4213 24.164C86.5173 23.916 86.6173 23.648 86.7213 23.36C86.8253 23.072 86.9333 22.78 87.0453 22.484H89.2533V25.532H92.8413V28.04H89.2533V33.548C89.2533 34.396 89.2973 35.016 89.3853 35.408C89.4733 35.792 89.6253 36.04 89.8413 36.152C90.0573 36.256 90.3693 36.308 90.7773 36.308C90.9853 36.308 91.2253 36.284 91.4973 36.236C91.7693 36.18 92.0293 36.112 92.2773 36.032C92.5253 35.952 92.7173 35.868 92.8533 35.78L93.3333 37.832C93.1173 38.024 92.7933 38.22 92.3613 38.42C91.9293 38.612 91.4373 38.772 90.8853 38.9C90.3333 39.028 89.7693 39.092 89.1933 39.092ZM101.393 39.092C99.3374 39.092 97.7614 38.48 96.6654 37.256C95.5694 36.032 95.0214 34.34 95.0214 32.18C95.0214 30.884 95.2694 29.724 95.7654 28.7C96.2694 27.676 96.9974 26.868 97.9494 26.276C98.9014 25.676 100.065 25.372 101.441 25.364C102.137 25.356 102.801 25.444 103.433 25.628C104.065 25.812 104.629 26.112 105.125 26.528C105.621 26.936 106.017 27.48 106.313 28.16C106.617 28.832 106.773 29.656 106.781 30.632C106.781 31.12 106.773 31.572 106.757 31.988C106.741 32.404 106.705 32.76 106.649 33.056H96.9894L97.2294 31.076H103.373C103.413 30.428 103.377 29.86 103.265 29.372C103.161 28.876 102.953 28.492 102.641 28.22C102.329 27.94 101.889 27.8 101.321 27.8C100.769 27.8 100.285 27.952 99.8694 28.256C99.4614 28.56 99.1454 29.084 98.9214 29.828C98.7054 30.564 98.6134 31.58 98.6454 32.876C98.6774 33.748 98.8454 34.448 99.1494 34.976C99.4614 35.496 99.8814 35.872 100.409 36.104C100.945 36.328 101.565 36.44 102.269 36.44C102.653 36.44 103.073 36.408 103.529 36.344C103.985 36.28 104.417 36.196 104.825 36.092C105.233 35.98 105.545 35.868 105.761 35.756L106.373 37.748C106.077 37.988 105.669 38.212 105.149 38.42C104.637 38.62 104.053 38.78 103.397 38.9C102.749 39.028 102.081 39.092 101.393 39.092ZM109.688 38.9V19.4H113.36V38.9H109.688ZM117.047 38.9V19.4H120.719V38.9H117.047ZM124.503 38.9V25.544H128.163V38.9H124.503ZM126.147 23.612C125.555 23.612 125.055 23.428 124.647 23.06C124.239 22.692 124.035 22.212 124.035 21.62C124.035 21.22 124.143 20.856 124.359 20.528C124.583 20.192 124.871 19.924 125.223 19.724C125.583 19.524 125.967 19.424 126.375 19.424C127.031 19.424 127.543 19.612 127.911 19.988C128.287 20.356 128.475 20.832 128.475 21.416C128.475 22.024 128.243 22.544 127.779 22.976C127.323 23.4 126.779 23.612 126.147 23.612ZM135.661 38.9V23.948H130.585V21.068H144.517V23.948H139.441V38.9H135.661ZM150.807 39.092C149.639 39.092 148.647 38.904 147.831 38.528C147.015 38.144 146.355 37.62 145.851 36.956C145.355 36.292 144.995 35.532 144.771 34.676C144.547 33.812 144.439 32.9 144.447 31.94C144.471 30.516 144.767 29.316 145.335 28.34C145.911 27.364 146.691 26.624 147.675 26.12C148.667 25.616 149.791 25.364 151.047 25.364C152.615 25.364 153.867 25.692 154.803 26.348C155.739 27.004 156.411 27.876 156.819 28.964C157.227 30.044 157.419 31.22 157.395 32.492C157.379 33.924 157.087 35.132 156.519 36.116C155.951 37.092 155.175 37.832 154.191 38.336C153.207 38.84 152.079 39.092 150.807 39.092ZM150.903 36.536C151.855 36.544 152.547 36.188 152.979 35.468C153.411 34.748 153.627 33.704 153.627 32.336C153.627 31.528 153.539 30.792 153.363 30.128C153.187 29.464 152.903 28.932 152.511 28.532C152.127 28.132 151.615 27.928 150.975 27.92C150.015 27.912 149.319 28.264 148.887 28.976C148.455 29.68 148.239 30.7 148.239 32.036C148.239 32.852 148.327 33.604 148.503 34.292C148.679 34.972 148.959 35.516 149.343 35.924C149.735 36.332 150.255 36.536 150.903 36.536ZM165.068 44.948C162.964 44.932 161.396 44.576 160.364 43.88C159.34 43.192 158.828 42.212 158.828 40.94C158.828 40.468 158.94 40.04 159.164 39.656C159.388 39.28 159.692 38.96 160.076 38.696C160.468 38.424 160.912 38.216 161.408 38.072L163.496 38.264C163.36 38.376 163.2 38.516 163.016 38.684C162.84 38.852 162.684 39.068 162.548 39.332C162.412 39.596 162.344 39.932 162.344 40.34C162.344 40.796 162.428 41.212 162.596 41.588C162.772 41.964 163.068 42.264 163.484 42.488C163.908 42.712 164.496 42.824 165.248 42.824C165.872 42.824 166.44 42.752 166.952 42.608C167.472 42.472 167.88 42.256 168.176 41.96C168.48 41.672 168.632 41.296 168.632 40.832C168.632 40.432 168.56 40.08 168.416 39.776C168.28 39.48 168.004 39.248 167.588 39.08C167.18 38.912 166.576 38.828 165.776 38.828H163.556C163.252 38.828 162.984 38.808 162.752 38.768C162.52 38.72 162.292 38.672 162.068 38.624C161.916 38.584 161.808 38.544 161.744 38.504C161.688 38.456 161.576 38.416 161.408 38.384C160.808 38.216 160.38 37.972 160.124 37.652C159.868 37.324 159.74 36.92 159.74 36.44C159.748 36.128 159.816 35.804 159.944 35.468C160.072 35.124 160.292 34.796 160.604 34.484C160.916 34.164 161.34 33.892 161.876 33.668L163.94 34.04C163.62 34.16 163.368 34.352 163.184 34.616C163.008 34.872 162.92 35.128 162.92 35.384C162.92 35.776 163.04 36.048 163.28 36.2C163.528 36.344 163.952 36.416 164.552 36.416H166.964C167.996 36.416 168.848 36.516 169.52 36.716C170.192 36.916 170.72 37.192 171.104 37.544C171.488 37.888 171.756 38.28 171.908 38.72C172.068 39.152 172.148 39.604 172.148 40.076C172.148 40.876 171.956 41.58 171.572 42.188C171.188 42.804 170.664 43.316 170 43.724C169.336 44.132 168.58 44.44 167.732 44.648C166.884 44.856 165.996 44.956 165.068 44.948ZM164.876 34.376C163.772 34.376 162.792 34.2 161.936 33.848C161.088 33.496 160.424 32.988 159.944 32.324C159.464 31.66 159.224 30.868 159.224 29.948C159.224 28.948 159.46 28.108 159.932 27.428C160.404 26.748 161.064 26.236 161.912 25.892C162.768 25.548 163.764 25.372 164.9 25.364C166.044 25.356 167.048 25.52 167.912 25.856C168.784 26.192 169.46 26.696 169.94 27.368C170.428 28.032 170.672 28.856 170.672 29.84C170.672 30.816 170.448 31.644 170 32.324C169.552 32.996 168.896 33.508 168.032 33.86C167.168 34.204 166.116 34.376 164.876 34.376ZM164.924 32.324C165.628 32.324 166.192 32.164 166.616 31.844C167.048 31.516 167.264 30.872 167.264 29.912C167.264 29.136 167.076 28.552 166.7 28.16C166.332 27.76 165.768 27.56 165.008 27.56C164.56 27.56 164.168 27.628 163.832 27.764C163.496 27.892 163.232 28.124 163.04 28.46C162.856 28.796 162.764 29.268 162.764 29.876C162.764 30.54 162.928 31.116 163.256 31.604C163.584 32.084 164.14 32.324 164.924 32.324ZM169.1 28.136L168.524 26.624C168.684 26.408 169.008 26.168 169.496 25.904C169.984 25.632 170.556 25.496 171.212 25.496H172.772V28.136H169.1ZM180.302 44.948C178.198 44.932 176.63 44.576 175.598 43.88C174.574 43.192 174.062 42.212 174.062 40.94C174.062 40.468 174.174 40.04 174.398 39.656C174.622 39.28 174.926 38.96 175.31 38.696C175.702 38.424 176.146 38.216 176.642 38.072L178.73 38.264C178.594 38.376 178.434 38.516 178.25 38.684C178.074 38.852 177.918 39.068 177.782 39.332C177.646 39.596 177.578 39.932 177.578 40.34C177.578 40.796 177.662 41.212 177.83 41.588C178.006 41.964 178.302 42.264 178.718 42.488C179.142 42.712 179.73 42.824 180.482 42.824C181.106 42.824 181.674 42.752 182.186 42.608C182.706 42.472 183.114 42.256 183.41 41.96C183.714 41.672 183.866 41.296 183.866 40.832C183.866 40.432 183.794 40.08 183.65 39.776C183.514 39.48 183.238 39.248 182.822 39.08C182.414 38.912 181.81 38.828 181.01 38.828H178.79C178.486 38.828 178.218 38.808 177.986 38.768C177.754 38.72 177.526 38.672 177.302 38.624C177.15 38.584 177.042 38.544 176.978 38.504C176.922 38.456 176.81 38.416 176.642 38.384C176.042 38.216 175.614 37.972 175.358 37.652C175.102 37.324 174.974 36.92 174.974 36.44C174.982 36.128 175.05 35.804 175.178 35.468C175.306 35.124 175.526 34.796 175.838 34.484C176.15 34.164 176.574 33.892 177.11 33.668L179.174 34.04C178.854 34.16 178.602 34.352 178.418 34.616C178.242 34.872 178.154 35.128 178.154 35.384C178.154 35.776 178.274 36.048 178.514 36.2C178.762 36.344 179.186 36.416 179.786 36.416H182.198C183.23 36.416 184.082 36.516 184.754 36.716C185.426 36.916 185.954 37.192 186.338 37.544C186.722 37.888 186.99 38.28 187.142 38.72C187.302 39.152 187.382 39.604 187.382 40.076C187.382 40.876 187.19 41.58 186.806 42.188C186.422 42.804 185.898 43.316 185.234 43.724C184.57 44.132 183.814 44.44 182.966 44.648C182.118 44.856 181.23 44.956 180.302 44.948ZM180.11 34.376C179.006 34.376 178.026 34.2 177.17 33.848C176.322 33.496 175.658 32.988 175.178 32.324C174.698 31.66 174.458 30.868 174.458 29.948C174.458 28.948 174.694 28.108 175.166 27.428C175.638 26.748 176.298 26.236 177.146 25.892C178.002 25.548 178.998 25.372 180.134 25.364C181.278 25.356 182.282 25.52 183.146 25.856C184.018 26.192 184.694 26.696 185.174 27.368C185.662 28.032 185.906 28.856 185.906 29.84C185.906 30.816 185.682 31.644 185.234 32.324C184.786 32.996 184.13 33.508 183.266 33.86C182.402 34.204 181.35 34.376 180.11 34.376ZM180.158 32.324C180.862 32.324 181.426 32.164 181.85 31.844C182.282 31.516 182.498 30.872 182.498 29.912C182.498 29.136 182.31 28.552 181.934 28.16C181.566 27.76 181.002 27.56 180.242 27.56C179.794 27.56 179.402 27.628 179.066 27.764C178.73 27.892 178.466 28.124 178.274 28.46C178.09 28.796 177.998 29.268 177.998 29.876C177.998 30.54 178.162 31.116 178.49 31.604C178.818 32.084 179.374 32.324 180.158 32.324ZM184.334 28.136L183.758 26.624C183.918 26.408 184.242 26.168 184.73 25.904C185.218 25.632 185.79 25.496 186.446 25.496H188.006V28.136H184.334ZM190.149 38.9V19.4H193.821V38.9H190.149ZM203.112 39.092C201.056 39.092 199.48 38.48 198.384 37.256C197.288 36.032 196.74 34.34 196.74 32.18C196.74 30.884 196.988 29.724 197.484 28.7C197.988 27.676 198.716 26.868 199.668 26.276C200.62 25.676 201.784 25.372 203.16 25.364C203.856 25.356 204.52 25.444 205.152 25.628C205.784 25.812 206.348 26.112 206.844 26.528C207.34 26.936 207.736 27.48 208.032 28.16C208.336 28.832 208.492 29.656 208.5 30.632C208.5 31.12 208.492 31.572 208.476 31.988C208.46 32.404 208.424 32.76 208.368 33.056H198.708L198.948 31.076H205.092C205.132 30.428 205.096 29.86 204.984 29.372C204.88 28.876 204.672 28.492 204.36 28.22C204.048 27.94 203.608 27.8 203.04 27.8C202.488 27.8 202.004 27.952 201.588 28.256C201.18 28.56 200.864 29.084 200.64 29.828C200.424 30.564 200.332 31.58 200.364 32.876C200.396 33.748 200.564 34.448 200.868 34.976C201.18 35.496 201.6 35.872 202.128 36.104C202.664 36.328 203.284 36.44 203.988 36.44C204.372 36.44 204.792 36.408 205.248 36.344C205.704 36.28 206.136 36.196 206.544 36.092C206.952 35.98 207.264 35.868 207.48 35.756L208.092 37.748C207.796 37.988 207.388 38.212 206.868 38.42C206.356 38.62 205.772 38.78 205.116 38.9C204.468 39.028 203.8 39.092 203.112 39.092Z" fill="white"/>
</svg>
