<svg width="120" height="60" viewBox="0 0 120 60" fill="none" xmlns="http://www.w3.org/2000/svg">
<path d="M60.8393 29.3987H59.0472V22.402C59.0381 21.7098 59.0642 21.0174 59.1251 20.3277C59.0671 20.6732 58.9618 21.0091 58.8122 21.3259L55.5299 29.4637H54.2802L50.9926 21.4072L50.6797 20.3222C50.7576 20.7833 50.7576 21.4743 50.7576 22.4742V29.48H49.0378V18.6423H51.6165L54.5099 25.8651L54.9783 27.0951C55.097 26.6473 55.2537 26.2106 55.4467 25.7895L58.4162 18.5668H60.9174L60.8393 29.3987ZM64.1995 20.024C64.0549 20.0316 63.9103 20.0081 63.7755 19.9551C63.6407 19.9021 63.5189 19.8207 63.4182 19.7166C63.2084 19.5503 63.0918 19.2928 63.1054 19.0258C63.0756 18.7555 63.1954 18.4907 63.4182 18.3349C63.6412 18.1551 63.9138 18.0478 64.1995 18.0276C64.3442 18.0199 64.4888 18.0434 64.6236 18.0964C64.7583 18.1495 64.8802 18.2308 64.9809 18.3349C65.1907 18.5012 65.3073 18.7587 65.2937 19.0258C65.3235 19.2961 65.2037 19.5608 64.9809 19.7166C64.8802 19.8207 64.7583 19.9021 64.6236 19.9551C64.4888 20.0081 64.3442 20.0316 64.1995 20.024ZM65.0585 29.3987H63.2609V21.6388H65.0585V29.3987ZM73.1056 29.0933C72.4798 29.4768 71.6987 29.6362 70.8396 29.6362C69.6677 29.6362 68.7291 29.2528 68.0257 28.5601C67.3222 27.8674 66.9406 26.9471 66.9406 25.7931C66.9406 24.4875 67.3312 23.4875 68.1125 22.7188C68.8938 21.9501 69.9101 21.5667 71.2374 21.5667C71.882 21.5668 72.5198 21.6972 73.1127 21.9501V23.5596C72.6133 23.1884 72.0146 22.9743 71.393 22.9449C70.6142 22.9449 69.9861 23.1746 69.5177 23.7133C69.0367 24.2616 68.7848 24.9739 68.8143 25.7027C68.8143 26.4711 69.0493 27.1617 69.5175 27.6233C70.0003 28.0846 70.6476 28.3333 71.3151 28.3141C71.9775 28.3054 72.615 28.0603 73.1127 27.6233V29.0938L73.1056 29.0933ZM79.4352 23.3315C79.1519 23.1654 78.8264 23.0857 78.4961 23.1018C77.9533 23.1018 77.557 23.3315 77.1669 23.7926C76.7769 24.2537 76.6241 24.8776 76.6241 25.7132V29.4026H74.8265V21.6388H76.6241V23.2518C76.7718 22.7584 77.0403 22.3097 77.4051 21.9462C77.7469 21.6377 78.1945 21.4725 78.6549 21.4851C78.898 21.4816 79.1387 21.5342 79.3583 21.6388L79.4352 23.3315ZM84.1995 29.6355C82.9498 29.6355 82.0114 29.2521 81.3061 28.5594C80.6009 27.8668 80.2211 26.8685 80.2211 25.7192C80.2211 24.4136 80.6117 23.4135 81.393 22.6448C82.1743 21.8761 83.1906 21.5598 84.44 21.5598C85.6895 21.5598 86.6282 21.9432 87.3334 22.6448C88.0387 23.3464 88.3408 24.3302 88.3408 25.6358C88.3738 26.7364 87.9858 27.8081 87.2558 28.6323C86.3824 29.308 85.3036 29.663 84.1995 29.6401V29.6355ZM84.2774 22.8739C83.5745 22.8739 83.0279 23.1041 82.6374 23.5647C82.2469 24.0258 82.0116 24.7168 82.0116 25.554C82.0116 26.3912 82.2466 27.0131 82.6374 27.4746C83.0282 27.9362 83.5765 28.1654 84.2774 28.1654C84.9783 28.1654 85.5271 27.9357 85.9174 27.4746C86.3077 27.0135 86.4603 26.3985 86.4603 25.4853C86.4603 24.6408 86.3045 23.9506 85.9174 23.496C85.6988 23.2894 85.441 23.1287 85.1593 23.0231C84.8777 22.9175 84.5778 22.8693 84.2772 22.8812L84.2774 22.8739ZM89.5924 29.1689V27.5518C90.2956 28.0129 90.9992 28.3203 91.7805 28.3203C92.8739 28.3203 93.4205 28.0129 93.4205 27.3981C93.4044 27.2346 93.3511 27.0769 93.2648 26.937C93.1718 26.7946 93.0346 26.6867 92.8742 26.6296C92.6995 26.5394 92.5181 26.4624 92.3314 26.3999L91.6282 26.1702C91.3355 26.057 91.0489 25.9291 90.7692 25.7867C90.5472 25.6521 90.3378 25.4978 90.1435 25.3256C89.9696 25.152 89.8363 24.942 89.7529 24.7109C89.6563 24.4658 89.6037 24.2057 89.5974 23.9424C89.592 23.5953 89.6727 23.2524 89.8324 22.9442C89.9837 22.6422 90.2312 22.3991 90.5358 22.2534C90.8487 22.0236 91.1616 21.946 91.5521 21.7923C91.9369 21.7034 92.3293 21.6519 92.724 21.6386C93.3887 21.6156 94.0516 21.72 94.6771 21.946V23.4852C94.1251 23.1106 93.4686 22.9206 92.8019 22.9426C92.5903 22.9248 92.3773 22.9506 92.1761 23.0186C92.0203 23.0947 91.8632 23.0947 91.7077 23.1721C91.5686 23.2316 91.4571 23.3416 91.3948 23.4795C91.332 23.597 91.305 23.7303 91.3169 23.8629C91.3044 24.0207 91.3311 24.1791 91.3946 24.324C91.4565 24.4621 91.5682 24.5719 91.7074 24.6314C91.8822 24.7216 92.0636 24.7986 92.2503 24.8611C92.4853 24.9372 92.6408 25.0146 92.9535 25.0909C93.2509 25.251 93.5643 25.3795 93.8885 25.4743C94.2014 25.5503 94.3569 25.7817 94.5917 25.9354C94.7661 26.1257 94.9229 26.3315 95.0601 26.5502C95.1563 26.8217 95.2089 27.1067 95.2158 27.3947C95.2158 27.7781 95.138 28.1632 94.903 28.3929C94.7313 28.6807 94.49 28.9208 94.2014 29.091C93.852 29.2723 93.4893 29.4264 93.1163 29.5521C91.9333 29.8508 90.6824 29.7141 89.5917 29.1669L89.5924 29.1689ZM100.457 29.6355C99.2073 29.6355 98.2689 29.2521 97.5636 28.5594C96.8584 27.8668 96.4786 26.8685 96.4786 25.7192C96.4786 24.4136 96.8692 23.4135 97.6505 22.6448C98.4318 21.8761 99.4481 21.5598 100.698 21.5598C101.947 21.5598 102.886 21.9432 103.591 22.6448C104.296 23.3464 104.607 24.3357 104.607 25.6413C104.64 26.7419 104.252 27.8136 103.522 28.6378C102.637 29.3036 101.555 29.6555 100.448 29.6378L100.457 29.6355ZM100.535 22.8739C99.832 22.8739 99.2854 23.1041 98.8949 23.5647C98.5044 24.0258 98.2691 24.7168 98.2691 25.554C98.2691 26.3912 98.5041 27.0131 98.8949 27.4746C99.2857 27.9362 99.834 28.1654 100.535 28.1654C101.236 28.1654 101.785 27.9357 102.175 27.4746C102.565 27.0135 102.718 26.3985 102.718 25.4853C102.718 24.6408 102.562 23.9506 102.175 23.496C101.957 23.2867 101.699 23.1233 101.417 23.0155C101.134 22.9077 100.833 22.8576 100.531 22.8684L100.535 22.8739ZM110.765 19.4106C110.506 19.2542 110.208 19.1745 109.906 19.1808C109.047 19.1808 108.577 19.6419 108.577 20.6399V21.7165H110.375V23.0999H108.577V29.4818H106.787V23.0981H105.457V21.7146H106.787V20.4846C106.787 19.6401 107.022 19.0255 107.565 18.564C107.993 18.2361 108.493 18.0156 109.023 17.9211C109.553 17.8267 110.098 17.861 110.613 18.0211V19.4046H110.763L110.765 19.4106ZM115.927 29.3224C115.614 29.4756 115.145 29.5521 114.52 29.5521C112.958 29.5521 112.254 28.8613 112.254 27.4002V23.0223H110.925V21.6388H112.254V19.8705L114.051 19.4094V21.7151H115.927V23.0986H114.051V26.9467C114.026 27.2955 114.108 27.6438 114.286 27.9449C114.442 28.1746 114.755 28.2523 115.145 28.2523C115.423 28.2562 115.696 28.1727 115.924 28.0136V29.3192L115.927 29.3224ZM59.9909 45.3561H57.9583L56.942 42.591H52.5657L51.6266 45.3579H49.5958L53.7371 34.5237H55.7642L59.9909 45.3561ZM56.4736 41.1301L54.9114 36.828C54.8428 36.6018 54.7908 36.3709 54.7559 36.1372C54.721 36.3709 54.6691 36.6018 54.6004 36.828L53.1157 41.1301H56.4736ZM67.1108 38.3592L62.8901 43.9653H67.1092V45.3488H60.3819V44.6708L64.76 38.9797H60.854V37.5962H67.1834V38.3594L67.1108 38.3592ZM75.54 45.3561H73.7424V44.1284C73.5098 44.5638 73.1589 44.9247 72.7302 45.1695C72.3015 45.4142 71.8124 45.5329 71.3192 45.5119C69.4439 45.5119 68.5053 44.4358 68.5053 42.208V37.5958H70.3029V42.0518C70.3029 43.4347 70.8496 44.1261 71.9429 44.1261C72.1904 44.1361 72.4372 44.0928 72.6665 43.9992C72.8958 43.9056 73.1023 43.7638 73.2721 43.5835C73.6232 43.1481 73.8147 42.6056 73.8147 42.0463V37.5958H75.6105L75.54 45.3561ZM82.417 39.2869C82.1337 39.1208 81.8082 39.0411 81.4779 39.0571C80.9351 39.0571 80.5388 39.2869 80.1487 39.748C79.7587 40.2091 79.6059 40.833 79.6059 41.6686V45.3577H77.8083V37.5958H79.6059V39.2088C79.7536 38.7154 80.0221 38.2667 80.387 37.9032C80.7255 37.5976 81.1657 37.4327 81.6238 37.4421C81.867 37.4386 82.1077 37.4912 82.3273 37.5958L82.417 39.2869ZM90.3867 41.976H84.996C84.996 42.6668 85.231 43.2816 85.6992 43.6668C86.0897 44.0503 86.7155 44.2816 87.4968 44.2816C88.345 44.3004 89.1743 44.0293 89.8478 43.5131V44.8966C89.1389 45.3608 88.1986 45.5929 87.0267 45.5929C86.5209 45.6099 86.0169 45.5223 85.5465 45.3356C85.076 45.1489 84.6491 44.8672 84.2925 44.5079C83.5893 43.8171 83.2762 42.817 83.2762 41.5114C83.2392 40.433 83.6291 39.3835 84.3613 38.5908C84.7078 38.2139 85.1313 37.9159 85.603 37.7169C86.0747 37.5178 86.5837 37.4224 87.0955 37.4371C88.1805 37.4371 88.9707 37.7444 89.5967 38.4353C90.2227 39.1261 90.4557 40.0483 90.4557 41.2755L90.3867 41.976ZM88.667 40.746C88.667 40.1312 88.5112 39.5938 88.1986 39.2869C88.0493 39.1026 87.8577 38.957 87.6402 38.8625C87.4226 38.768 87.1855 38.7274 86.9489 38.744C86.7014 38.734 86.4546 38.7773 86.2253 38.8709C85.996 38.9645 85.7894 39.1063 85.6197 39.2867C85.2291 39.6701 85.0768 40.1312 84.9939 40.7457L88.667 40.746Z" fill="#1A1C3D"/>
<path fill-rule="evenodd" clip-rule="evenodd" d="M28.5312 19.0379L22.704 30.7738L32.9656 42.6644L13.9244 44.826L43.4709 45.1352L28.5312 19.0379ZM27.382 14.405L14.0039 25.6007L4.07288 42.3559L12.5265 41.5084L27.382 14.405Z" fill="#1A1C3D"/>
</svg>
